# xmcd
# 
# Track frame offsets:
#	150
#	22165
#	46495
#	68500
# 
# Disc length: 1235 seconds
# 
# Revision: 0
# Processed by: cddbd v1.5PL3 Copyright (c) Steve Scherf et al.
# Submitted via: CD Titler Ver.2.00beta9
# 
DISCID=2f04d104
DTITLE=笠原弘子 - STAND THE NIGHT
DYEAR=1998
DGENRE=Anime
TTITLE0=STAND THE NIGHT
TTITLE1=MY PRAYER
TTITLE2=STAND THE NIGHT(karaoke)
TTITLE3=MY PRAYER(karaoke)
EXTD=
EXTT0=
EXTT1=
EXTT2=
EXTT3=
PLAYORDER=
